<svg width="16" height="16" viewBox="0 0 16 16" fill="none" xmlns="http://www.w3.org/2000/svg">
<path d="M11.4207 6.95197V12.6623C11.4207 12.8253 11.3899 12.9868 11.3301 13.1374C11.2703 13.288 11.1827 13.4248 11.0722 13.5401C10.9618 13.6554 10.8306 13.7468 10.6863 13.8092C10.542 13.8716 10.3873 13.9037 10.231 13.9037H3.09311C2.77759 13.9037 2.475 13.7729 2.25189 13.5401C2.02879 13.3073 1.90345 12.9915 1.90345 12.6623V5.21404C1.90345 4.8848 2.02879 4.56905 2.25189 4.33625C2.475 4.10344 2.77759 3.97266 3.09311 3.97266H8.07419" stroke="#CACACA" stroke-width="1.5" stroke-linecap="round" stroke-linejoin="round"/>
<path d="M13.6793 1.65269C13.6358 1.60286 13.5831 1.56274 13.5244 1.53476C13.4656 1.50678 13.4021 1.49152 13.3375 1.48989C13.273 1.48827 13.2088 1.50032 13.1488 1.52531C13.0889 1.5503 13.0344 1.58772 12.9887 1.63531L12.6208 2.01734C12.5762 2.0639 12.5511 2.12702 12.5511 2.19284C12.5511 2.25866 12.5762 2.32179 12.6208 2.36834L12.958 2.71965C12.9801 2.74283 13.0064 2.76122 13.0353 2.77377C13.0643 2.78632 13.0953 2.79278 13.1267 2.79278C13.158 2.79278 13.189 2.78632 13.218 2.77377C13.2469 2.76122 13.2732 2.74283 13.2953 2.71965L13.654 2.34724C13.8354 2.15824 13.8523 1.85038 13.6793 1.65269ZM11.8769 2.7932L6.50801 8.38562C6.47546 8.41945 6.4518 8.46145 6.43931 8.50759L6.19097 9.27942C6.18502 9.30036 6.1846 9.32259 6.18975 9.34376C6.1949 9.36493 6.20543 9.38426 6.22023 9.39971C6.23503 9.41515 6.25356 9.42614 6.27385 9.43152C6.29414 9.43689 6.31544 9.43645 6.33551 9.43024L7.07458 9.17111C7.1188 9.15807 7.15905 9.13338 7.19147 9.09942L12.5509 3.49645C12.6004 3.44415 12.6283 3.37356 12.6283 3.3C12.6283 3.22644 12.6004 3.15584 12.5509 3.10355L12.2549 2.7932C12.2048 2.74099 12.1368 2.71167 12.0659 2.71167C11.9951 2.71167 11.9271 2.74099 11.8769 2.7932Z" fill="#CACACA"/>
</svg>
