<svg width="16" height="16" viewBox="0 0 16 16" fill="none" xmlns="http://www.w3.org/2000/svg">
<g clip-path="url(#clip0_124_106)">
<path d="M7.61379 9.93091C8.66504 9.93091 9.51724 9.04165 9.51724 7.9447C9.51724 6.84775 8.66504 5.9585 7.61379 5.9585C6.56255 5.9585 5.71034 6.84775 5.71034 7.9447C5.71034 9.04165 6.56255 9.93091 7.61379 9.93091Z" fill="#CACACA"/>
<path d="M11.7425 4.38163C10.4422 3.45122 9.0506 2.97949 7.60665 2.97949C6.30725 2.97949 5.04057 3.38294 3.84169 4.1737C2.63271 4.97284 1.44751 6.42432 0.475861 7.94501C1.26163 9.31053 2.33648 10.7145 3.45595 11.5196C4.74018 12.4425 6.13654 12.9105 7.60665 12.9105C9.06398 12.9105 10.4574 12.4428 11.7496 11.5205C12.8872 10.7071 13.9698 9.30494 14.7517 7.94501C13.9671 6.59718 12.881 5.1966 11.7425 4.38163ZM7.61379 10.9243C7.04909 10.9243 6.49707 10.7496 6.02754 10.4222C5.55801 10.0948 5.19206 9.62954 4.97596 9.08514C4.75985 8.54074 4.70331 7.9417 4.81348 7.36378C4.92365 6.78585 5.19558 6.25498 5.59488 5.83832C5.99418 5.42166 6.50293 5.1379 7.05677 5.02295C7.61062 4.90799 8.1847 4.96699 8.70642 5.19249C9.22813 5.41798 9.67405 5.79985 9.98778 6.28979C10.3015 6.77974 10.469 7.35576 10.469 7.94501C10.4681 8.73489 10.167 9.49217 9.63175 10.0507C9.09649 10.6092 8.37076 10.9234 7.61379 10.9243Z" fill="#CACACA"/>
</g>
<defs>
<clipPath id="clip0_124_106">
<rect width="15.2276" height="15.8897" fill="white"/>
</clipPath>
</defs>
</svg>
