<?xml version="1.0" encoding="UTF-8"?>
<svg version="1.1" xmlns="http://www.w3.org/2000/svg" width="512" height="512">
<path d="M0 0 C1.65173007 -0.00461646 3.30345603 -0.01097435 4.95517349 -0.01890898 C9.46563676 -0.03552322 13.97575913 -0.02739214 18.48622322 -0.0149641 C23.36156587 -0.0058834 28.23685145 -0.01989828 33.11218262 -0.03088379 C42.6517595 -0.04864142 52.19121028 -0.04484131 61.73079205 -0.03323323 C69.4859438 -0.02418833 77.2410603 -0.02297948 84.99621582 -0.02732849 C86.65379673 -0.02824789 86.65379673 -0.02824789 88.34486413 -0.02918586 C90.58997696 -0.0304648 92.83508977 -0.03176166 95.08020258 -0.03307623 C116.11735048 -0.04447395 137.15442858 -0.03138098 158.19156504 -0.00987476 C176.23028403 0.00799547 194.26890005 0.00489114 212.30761719 -0.0135498 C233.27107818 -0.03497077 254.23447805 -0.04337539 275.19794846 -0.03110075 C277.43465931 -0.02982659 279.67137018 -0.02856911 281.90808105 -0.02732849 C283.55870462 -0.02640284 283.55870462 -0.02640284 285.24267411 -0.02545848 C292.98573163 -0.02200927 300.72875027 -0.0278247 308.47180176 -0.0372467 C317.91198615 -0.04848167 327.35203755 -0.04539511 336.79220676 -0.02412373 C341.60588459 -0.01363352 346.41934093 -0.00945684 351.23301697 -0.02272034 C355.64472893 -0.03469215 360.05601535 -0.02800321 364.46768904 -0.00681013 C366.05837699 -0.00236428 367.64910135 -0.00456465 369.23976564 -0.01431328 C383.77026248 -0.0964924 395.49176543 2.49038021 406.45214844 12.50793457 C415.25110706 22.13503048 419.11738592 32.58418792 418.92089844 45.57385254 C418.34488698 58.10510183 413.14680549 68.389162 403.90917969 76.83215332 C392.55287694 85.69760755 380.91104772 87.10171167 366.90429688 87.01586914 C365.2525668 87.0204856 363.60084085 87.02684349 361.94912338 87.03477812 C357.43866011 87.05139236 352.92853774 87.04326128 348.41807365 87.03083324 C343.54273101 87.02175254 338.66744543 87.03576742 333.79211426 87.04675293 C324.25253737 87.06451056 314.71308659 87.06071045 305.17350483 87.04910237 C297.41835307 87.04005747 289.66323658 87.03884862 281.90808105 87.04319763 C280.80302711 87.04381056 279.69797317 87.0444235 278.55943274 87.045055 C276.31431992 87.04633394 274.0692071 87.0476308 271.8240943 87.04894537 C250.78694639 87.06034309 229.74986829 87.04725012 208.71273184 87.0257439 C190.67401284 87.00787367 172.63539682 87.010978 154.59667969 87.02941895 C133.63321869 87.05083991 112.66981883 87.05924453 91.70634842 87.04696989 C89.46963756 87.04569574 87.2329267 87.04443825 84.99621582 87.04319763 C83.89580011 87.04258053 82.7953844 87.04196343 81.66162276 87.04132763 C73.91856525 87.03787841 66.17554661 87.04369384 58.43249512 87.05311584 C48.99231073 87.06435081 39.55225933 87.06126425 30.11209011 87.03999287 C25.29841228 87.02950266 20.48495594 87.02532598 15.67127991 87.03858948 C11.25956794 87.05056129 6.84828153 87.04387235 2.43660784 87.02267927 C0.84591988 87.01823342 -0.74480447 87.02043379 -2.33546877 87.03018242 C-16.8659656 87.11236155 -28.58746856 84.52548893 -39.54785156 74.50793457 C-48.34681019 64.88083866 -52.21308904 54.43168122 -52.01660156 41.4420166 C-51.4405901 28.91076731 -46.24250861 18.62670714 -37.00488281 10.18371582 C-25.64858007 1.31826159 -14.00675085 -0.08584253 0 0 Z " fill="#000000" transform="translate(72.5478515625,212.4920654296875)"/>
<path d="M0 0 C1.62438831 -0.00302329 3.2487752 -0.00691366 4.87315959 -0.01159257 C9.32190283 -0.02185851 13.77056535 -0.01969432 18.21931517 -0.01541197 C23.02312118 -0.01294219 27.82690788 -0.02196207 32.63070679 -0.02944946 C42.03630724 -0.04219165 51.44187914 -0.04399073 60.84748677 -0.0416492 C68.49400735 -0.03986527 76.14051926 -0.04161728 83.7870388 -0.04587364 C84.87584705 -0.04646883 85.96465529 -0.04706402 87.08645773 -0.04767724 C89.29847315 -0.04888901 91.51048856 -0.05010315 93.72250398 -0.05131962 C114.46203543 -0.0621934 135.20155061 -0.06003349 155.94108298 -0.05393478 C174.90521315 -0.04876628 193.86929195 -0.06001958 212.83341197 -0.07903299 C232.31517349 -0.09841535 251.79691071 -0.10666666 271.27868193 -0.10290974 C282.21241457 -0.10099824 293.14610349 -0.10348031 304.07982826 -0.11762428 C313.38830712 -0.12954413 322.69671534 -0.1309362 332.00519518 -0.11883412 C336.75198986 -0.11294959 341.49865539 -0.11183424 346.24544144 -0.12383652 C350.59613714 -0.13470918 354.94659606 -0.13157553 359.29728075 -0.11757483 C360.8658554 -0.11493171 362.43444868 -0.1172823 364.00300501 -0.1253107 C379.60387898 -0.19957868 392.32971016 2.09545167 404.22819519 12.76069641 C413.42211469 22.42178662 416.57246683 34.3465286 416.31803894 47.33491516 C415.49518799 58.9823124 410.18529412 68.53568744 401.85319519 76.51069641 C394.07698284 83.1138869 385.40398766 86.38002927 375.30104733 86.39491749 C374.62100129 86.39726972 373.94095525 86.39962195 373.24030176 86.40204546 C370.95092616 86.40872711 368.66160743 86.40827749 366.3722229 86.40786743 C364.71843967 86.41116658 363.06465725 86.41489226 361.41087586 86.41900891 C356.85771612 86.4290313 352.30456956 86.43274609 347.75140035 86.43539822 C342.84391492 86.43930058 337.93643994 86.44887899 333.02896118 86.45761108 C321.17285433 86.47737775 309.31674662 86.4874421 297.46062741 86.49633887 C291.87786544 86.50072157 286.29510443 86.50608844 280.71234322 86.51132774 C262.15464061 86.52834046 243.5969386 86.54283464 225.03922939 86.55007648 C220.22290483 86.55198639 215.40658028 86.55390672 210.59025574 86.55586243 C208.79463616 86.55658804 208.79463616 86.55658804 206.96274144 86.55732831 C187.57081805 86.56562861 168.17895635 86.59096536 148.7870599 86.6234431 C128.87945044 86.65651283 108.97187234 86.67452518 89.06423527 86.67772073 C77.88619319 86.67988593 66.70824107 86.68863618 55.53022575 86.7141819 C46.01042104 86.7358877 36.49072813 86.74393988 26.97090148 86.73421512 C22.11485956 86.72967006 17.25904831 86.73156872 12.40303802 86.75097656 C7.95345694 86.76860622 3.50427484 86.76761209 -0.94531047 86.75207927 C-2.5510336 86.7497029 -4.15678435 86.75402827 -5.76246531 86.76590792 C-20.0606554 86.86510122 -31.35899887 84.08339783 -42.11946106 74.29585266 C-50.85740692 65.26391984 -54.22668545 54.42875985 -54.20588684 42.11152649 C-53.99890466 30.34331372 -49.23049533 20.64561578 -41.33430481 12.01069641 C-29.5579708 0.88735224 -15.31498832 -0.04042615 0 0 Z " fill="#000000" transform="translate(74.95930480957031,361.7393035888672)"/>
<path d="M0 0 C0.68004604 -0.00235223 1.36009207 -0.00470446 2.06074557 -0.00712797 C4.35012117 -0.01380962 6.6394399 -0.01336 8.92882442 -0.01294994 C10.58260765 -0.01624909 12.23639007 -0.01997477 13.89017147 -0.02409142 C18.44333121 -0.03411382 22.99647777 -0.03782861 27.54964697 -0.04048073 C32.4571324 -0.04438309 37.36460738 -0.0539615 42.27208614 -0.0626936 C54.128193 -0.08246026 65.98430071 -0.09252462 77.84041992 -0.10142139 C83.42318188 -0.10580408 89.0059429 -0.11117095 94.58870411 -0.11641026 C113.14640671 -0.13342297 131.70410873 -0.14791715 150.26181793 -0.155159 C155.07814249 -0.1570689 159.89446705 -0.15898923 164.71079159 -0.16094494 C166.50641116 -0.16167055 166.50641116 -0.16167055 168.33830588 -0.16241082 C187.73022927 -0.17071112 207.12209098 -0.19604787 226.51398743 -0.22852562 C246.42159688 -0.26159534 266.32917499 -0.27960769 286.23681206 -0.28280324 C297.41485413 -0.28496844 308.59280626 -0.29371869 319.77082157 -0.31926441 C329.29062628 -0.34097021 338.8103192 -0.3490224 348.33014584 -0.33929763 C353.18618776 -0.33475257 358.04199901 -0.33665123 362.8980093 -0.35605907 C367.34759038 -0.37368873 371.79677248 -0.3726946 376.24635779 -0.35716178 C377.85208093 -0.35478541 379.45783168 -0.35911079 381.06351263 -0.37099043 C395.36170273 -0.47018373 406.6600462 2.31151966 417.42050838 12.09906483 C426.15845424 21.13099765 429.52773277 31.96615764 429.50693417 44.283391 C429.29995199 56.05160377 424.53154266 65.74930171 416.63535213 74.38422108 C404.85901812 85.50756525 390.61603564 86.43534364 375.30104733 86.39491749 C373.67665901 86.39794078 372.05227212 86.40183115 370.42788774 86.40651006 C365.9791445 86.41677599 361.53048197 86.41461181 357.08173215 86.41032946 C352.27792615 86.40785968 347.47413945 86.41687956 342.67034054 86.42436695 C333.26474008 86.43710914 323.85916819 86.43890822 314.45356055 86.43656669 C306.80703998 86.43478276 299.16052806 86.43653477 291.51400852 86.44079113 C289.88079616 86.44168391 289.88079616 86.44168391 288.2145896 86.44259473 C286.00257418 86.4438065 283.79055876 86.44502064 281.57854334 86.44623711 C260.8390119 86.45711089 240.09949671 86.45495097 219.35996435 86.44885226 C200.39583417 86.44368377 181.43175537 86.45493706 162.46763536 86.47395048 C142.98587384 86.49333284 123.50413662 86.50158415 104.02236539 86.49782723 C93.08863275 86.49591573 82.15494383 86.4983978 71.22121906 86.51254177 C61.91274021 86.52446162 52.60433199 86.52585368 43.29585215 86.5137516 C38.54905746 86.50786708 33.80239194 86.50675173 29.05560589 86.51875401 C24.70491018 86.52962667 20.35445127 86.52649302 16.00376657 86.51249232 C14.43519193 86.50984919 12.86659864 86.51219979 11.29804232 86.52022818 C-4.30283166 86.59449617 -17.02866284 84.29946582 -28.92714787 73.63422108 C-38.12106736 63.97313087 -41.2714195 52.04838889 -41.01699162 39.06000233 C-40.19414067 27.41260509 -34.88424679 17.85923005 -26.55214787 9.88422108 C-18.77593552 3.28103059 -10.10294034 0.01488822 0 0 Z " fill="#000000" transform="translate(61.73964786529541,63.86577892303467)"/>
</svg>
