<svg width="0" height="0" class="hidden">
  <symbol fill="none" xmlns="http://www.w3.org/2000/svg" viewBox="0 0 24 24" id="X">
    <path d="M9.59954 4.802C9.41841 4.53493 9.11668 4.375 8.79398 4.375H5.14783C4.83544 4.375 4.65025 4.72438 4.8256 4.9829L14.4897 19.2312C14.6708 19.4983 14.9725 19.6582 15.2952 19.6582H18.9414C19.2538 19.6582 19.439 19.3088 19.2636 19.0503L9.59954 4.802Z" stroke="#000000" stroke-width="1.5" stroke-linecap="round" stroke-linejoin="round"></path>
    <path d="M10.4499 13.4333L4.66895 20" stroke="#000000" stroke-width="1.5" stroke-linecap="round" stroke-linejoin="round"></path>
    <path d="M18.7571 4L13.3203 10.1756" stroke="#000000" stroke-width="1.5" stroke-linecap="round" stroke-linejoin="round"></path>
  </symbol>
  <symbol fill="none" xmlns="http://www.w3.org/2000/svg" viewBox="0 0 24 24" id="facebook">
    <path fill-rule="evenodd" clip-rule="evenodd" d="M16.9498 3.5C16.9498 3.22386 16.7259 3 16.4498 3H14.2498C13.056 3 11.9118 3.47676 11.0682 4.31351C10.2236 5.16 9.7498 6.30324 9.7498 7.5V10.2H7.54981C7.27366 10.2 7.0498 10.4239 7.0498 10.7V13.3C7.0498 13.5761 7.27366 13.8 7.5498 13.8H9.7498V20.5C9.7498 20.7761 9.97366 21 10.2498 21H12.8498C13.1259 21 13.3498 20.7761 13.3498 20.5V13.8H16.4498C16.7259 13.8 16.9498 13.5761 16.9498 13.3V10.7C16.9498 10.4239 16.7259 10.2 16.4498 10.2H13.3498V7.5C13.3498 7.25676 13.4442 7.032 13.6135 6.86076C13.7818 6.69924 14.0114 6.6 14.2498 6.6H16.4498C16.7259 6.6 16.9498 6.37614 16.9498 6.1V3.5Z" stroke="#000000" stroke-width="1.5" stroke-linecap="round" stroke-linejoin="round"></path>
  </symbol>
  <symbol fill="none" xmlns="http://www.w3.org/2000/svg" viewBox="0 0 24 24" id="instagram">
    <path d="M7.78216 3H16.2169C19.165 3 21 5.08119 21 8.02638V15.9736C21 18.9188 19.165 21 16.2159 21H7.78216C4.83405 21 3 18.9188 3 15.9736V8.02638C3 5.08119 4.84281 3 7.78216 3Z" stroke="#000000" stroke-width="1.5" stroke-linecap="round" stroke-linejoin="round"></path>
    <path d="M11.8445 8.82812C9.91023 8.82812 8.3418 10.3966 8.3418 12.3308C8.3418 14.2651 9.91023 15.8335 11.8445 15.8335C13.7788 15.8335 15.3472 14.2651 15.3472 12.3308C15.3472 10.3966 13.7788 8.82812 11.8445 8.82812Z" stroke="#000000" stroke-width="1.5" stroke-linecap="round" stroke-linejoin="round"></path>
    <path d="M16.8661 7.36374V7.43274V7.36374ZM17.1481 7.37875C17.1481 7.53575 17.0211 7.66275 16.8641 7.66275C16.7071 7.66275 16.5791 7.53575 16.5791 7.37875C16.5791 7.22175 16.7071 7.09375 16.8641 7.09375C17.0211 7.09375 17.1481 7.22175 17.1481 7.37875Z" stroke="#000000" stroke-width="1.5" stroke-linecap="round" stroke-linejoin="round"></path>
  </symbol>
</svg>