<svg width="13" height="12" viewBox="0 0 13 12" fill="none" xmlns="http://www.w3.org/2000/svg">
<path d="M6.18654 11.9172C5.99551 11.917 5.80897 11.8568 5.65119 11.7444C3.31382 10.0887 2.30172 8.95345 1.74347 8.24369C0.553817 6.73076 -0.0157301 5.17748 0.000330253 3.49541C0.0190673 1.56786 1.50108 0 3.304 0C4.615 0 5.52301 0.770586 6.05181 1.41238C6.06856 1.43251 6.08926 1.44864 6.1125 1.4597C6.13574 1.47076 6.16099 1.47649 6.18654 1.47649C6.21208 1.47649 6.23733 1.47076 6.26057 1.4597C6.28382 1.44864 6.30451 1.43251 6.32127 1.41238C6.85007 0.769966 7.75807 0 9.06907 0C10.872 0 12.354 1.56786 12.3727 3.49572C12.3888 5.1781 11.8187 6.73138 10.6296 8.244C10.0714 8.95376 9.05926 10.089 6.72188 11.7447C6.56407 11.857 6.37754 11.9171 6.18654 11.9172Z" fill="#CACACA"/>
</svg>
